<?xml version="1.0" encoding="utf-8"?>
<svg viewBox="1.15 253.07 742.665 270.259" xmlns="http://www.w3.org/2000/svg">
  <path d="M 5572.986 3604.529 C 5570.661 3602.511 5568.917 3560.131 5568.917 3510.352 C 5568.917 3425.593 5568.335 3420.885 5557.288 3420.885 C 5546.823 3420.885 5545.66 3425.593 5545.66 3463.937 C 5545.66 3492.19 5547.986 3508.334 5553.218 3510.352 C 5558.451 3513.043 5558.451 3515.734 5552.056 3520.443 C 5539.265 3531.206 5539.265 3550.041 5552.056 3553.404 C 5572.986 3560.131 5563.102 3568.876 5534.032 3568.876 C 5518.334 3568.876 5504.961 3566.185 5504.961 3562.149 C 5504.961 3558.786 5511.357 3555.422 5519.497 3555.422 C 5531.125 3555.422 5534.032 3552.059 5534.032 3538.605 C 5534.032 3526.497 5531.125 3521.788 5522.404 3521.788 C 5516.008 3521.788 5510.775 3519.097 5510.775 3515.061 C 5510.775 3511.698 5516.008 3508.334 5522.404 3508.334 C 5532.869 3508.334 5534.032 3503.625 5534.032 3465.282 C 5534.032 3437.029 5531.706 3420.885 5527.055 3418.867 C 5521.241 3416.176 5521.241 3414.158 5527.055 3409.449 C 5532.869 3404.74 5531.125 3387.25 5519.497 3326.036 C 5511.357 3283.656 5503.217 3243.968 5501.473 3237.913 C 5499.147 3229.168 5501.473 3225.805 5510.194 3225.805 C 5519.497 3225.805 5522.985 3233.205 5528.218 3264.821 C 5546.241 3367.742 5546.241 3367.742 5556.125 3365.724 C 5561.94 3364.379 5575.893 3339.489 5589.847 3305.855 C 5629.383 3211.006 5632.29 3219.078 5558.451 3219.078 C 5512.52 3219.078 5493.333 3221.769 5491.007 3227.823 C 5489.263 3233.205 5486.356 3232.532 5481.705 3224.46 C 5477.635 3216.387 5467.751 3212.351 5452.634 3212.351 L 5429.378 3212.351 L 5429.378 3258.767 C 5429.378 3299.128 5430.541 3305.182 5441.006 3308.546 C 5449.146 3311.236 5452.634 3317.963 5452.634 3331.417 C 5452.634 3354.288 5443.332 3367.07 5427.634 3367.07 C 5405.54 3367.07 5389.842 3319.309 5409.029 3310.564 C 5415.424 3307.873 5417.75 3295.765 5417.75 3259.439 C 5417.75 3213.697 5417.168 3212.351 5403.214 3212.351 C 5395.075 3212.351 5388.679 3211.006 5388.679 3208.988 C 5388.679 3198.225 5406.121 3158.536 5411.354 3158.536 C 5414.261 3158.536 5422.401 3149.791 5429.378 3139.028 C 5441.006 3119.52 5441.588 3110.103 5442.75 2927.131 C 5443.332 2812.101 5441.588 2514.972 5438.68 2516.318 C 5435.773 2517.663 5413.68 2505.555 5389.261 2489.41 C 5359.027 2469.229 5338.678 2460.484 5323.561 2460.484 C 5305.537 2460.484 5301.467 2457.794 5301.467 2447.703 C 5301.467 2434.922 5276.467 2406.669 5266.001 2406.669 C 5263.094 2406.669 5260.769 2434.25 5260.769 2467.211 L 5260.769 2527.753 L 5243.326 2527.753 C 5226.465 2527.753 5225.884 2529.099 5225.884 2556.006 L 5225.884 2583.586 L 4999.134 2579.55 L 4772.384 2574.841 L 4769.237 2890.559 L 4769.237 3035.187 L 4548.301 3035.187 L 4327.365 3035.187 L 4327.365 2950.428 C 4327.365 2875.76 4326.202 2866.342 4318.062 2869.706 C 4312.829 2871.724 4294.806 2873.742 4277.363 2873.742 L 4245.967 2873.742 L 4245.967 2904.013 L 4245.967 2934.284 L 4186.663 2934.284 C 4153.523 2934.284 4054.101 2932.266 3965.727 2929.575 L 3804.095 2925.539 L 3804.095 2893.923 C 3804.095 2863.652 3803.513 2862.306 3789.559 2865.67 C 3778.513 2867.688 3772.699 2876.433 3764.559 2901.995 C 3758.163 2923.521 3750.605 2935.629 3743.047 2937.647 C 3736.651 2938.993 3634.904 2938.32 3516.296 2935.629 L 3301.174 2930.92 L 3297.686 2678.662 C 3293.035 2346.354 3294.779 2375.952 3281.406 2375.952 C 3268.034 2375.952 3267.452 2380.661 3254.661 2708.26 C 3246.522 2909.394 3244.196 2932.266 3233.731 2952.446 L 3221.521 2974.645 L 3006.98 2974.645 L 2792.44 2974.645 L 2792.44 2957.828 C 2792.44 2947.065 2788.951 2941.011 2783.719 2941.011 C 2776.16 2941.011 2774.997 2906.031 2774.997 2665.881 C 2774.997 2477.528 2773.253 2388.733 2768.602 2386.043 C 2765.113 2383.352 2761.625 2382.679 2760.462 2383.352 C 2759.299 2384.697 2756.392 2490.309 2754.067 2618.12 C 2750.578 2817.909 2748.834 2854.907 2739.531 2886.523 C 2733.136 2906.704 2728.485 2928.23 2728.485 2935.629 C 2728.485 2947.065 2718.601 2947.738 2507.548 2947.738 L 2286.612 2947.738 L 2286.031 2734.495 C 2285.449 2616.775 2283.705 2501.072 2281.379 2476.856 L 2277.891 2433.131 L 2273.821 2483.582 C 2271.496 2511.163 2268.007 2569.014 2266.263 2611.393 C 2261.03 2723.06 2262.774 2717.678 2226.727 2720.369 L 2196.493 2722.387 L 2194.749 2835.399 L 2193.586 2947.738 L 1972.069 2947.738 L 1751.133 2947.738 L 1752.296 2835.399 C 1752.296 2772.839 1751.133 2723.06 1749.388 2724.405 C 1747.644 2725.078 1736.597 2725.75 1725.551 2725.75 L 1705.201 2725.75 L 1705.201 2786.292 L 1705.201 2846.834 L 1484.265 2846.834 L 1263.329 2846.834 L 1263.329 2786.292 L 1263.329 2725.75 L 1225.537 2725.75 L 1187.746 2725.75 L 1187.746 2779.565 L 1187.746 2833.381 L 1080.184 2833.381 L 972.623 2833.381 L 972.623 2779.565 C 972.623 2747.949 970.298 2725.75 966.809 2725.75 C 963.321 2725.75 960.995 2747.949 960.995 2779.565 L 960.995 2833.381 L 852.271 2832.035 L 742.966 2830.017 L 741.803 2699.516 C 741.222 2628.211 742.624 2397.252 741.461 2395.906 C 740.299 2394.561 701.925 2474.611 655.994 2573.496 C 610.644 2672.381 570.527 2755.122 567.038 2757.813 C 563.55 2760.504 562.387 2792.12 565.294 2846.608 C 568.201 2904.459 567.62 2931.366 562.968 2931.366 C 560.061 2931.366 557.154 2940.784 557.154 2952.892 C 557.154 2981.818 551.34 2972.4 542.619 2930.021 C 535.061 2892.35 533.316 2893.696 525.177 2953.565 C 519.362 2997.29 510.06 2981.818 511.804 2930.021 C 513.548 2884.951 514.711 2880.915 526.339 2878.897 C 539.13 2876.879 539.712 2874.188 539.712 2810.282 C 539.712 2757.14 537.968 2744.359 532.154 2747.05 C 526.921 2749.068 465.291 2667 361.8 2520.354 L 199.586 2290.967 L 102.491 2295.003 C 48.42 2297.021 11.5 2297.694 11.5 2295.676 C 11.5 2275.916 27.556 2134.973 40.865 2054.166 C 50.258 1997.139 153.986 1516.307 195.266 1446.347 L 269.687 1319.209 L 269.687 1266.066 L 269.687 1213.597 L 253.988 1213.597 C 244.686 1213.597 227.244 1210.233 214.453 1205.524 L 191.196 1198.125 L 208.638 1192.071 C 246.43 1179.962 1486.58 1171.89 4005.252 1168.527 C 6386.711 1165.163 6670.44 1165.836 6995.448 1175.926 C 7193.71 1182.653 7362.319 1188.707 7369.296 1190.725 C 7379.761 1193.416 7381.505 1196.107 7376.854 1202.834 C 7368.133 1214.942 7304.759 1229.741 7284.991 1223.687 C 7269.293 1219.651 7269.293 1219.651 7279.758 1232.432 C 7284.991 1239.832 7297.782 1250.595 7307.666 1255.976 C 7326.271 1266.066 7436.158 1416.076 7429.762 1422.13 C 7427.437 1424.148 7435.576 1542.541 7435.576 1685.824 L 7438.153 2460.484 L 7286.986 2460.484 C 7203.844 2460.484 7090.469 2462.502 7035.816 2465.193 L 6935.232 2469.229 L 6935.232 2877.352 L 6935.232 3064.36 L 6714.296 3064.36 L 6493.36 3064.36 L 6493.36 3044.179 C 6493.36 3025.344 6491.616 3023.998 6473.011 3023.998 C 6454.405 3023.998 6452.661 3025.344 6452.661 3044.179 C 6452.661 3064.36 6452.661 3064.36 6419.521 3064.36 C 6400.916 3064.36 6352.658 3062.342 6311.96 3059.651 C 6245.097 3056.287 6237.539 3054.269 6237.539 3042.834 C 6237.539 3034.089 6233.469 3030.725 6223.004 3030.725 C 6212.538 3030.725 6208.469 3034.089 6208.469 3044.179 C 6208.469 3056.96 6204.399 3057.633 6098 3057.633 C 5991.602 3057.633 5987.532 3056.96 5987.532 3044.179 C 5987.532 3032.743 5983.463 3030.725 5958.462 3030.725 C 5929.973 3030.725 5929.391 3030.053 5929.391 3011.217 C 5929.391 2991.709 5928.81 2991.709 5895.088 2989.019 L 5861.366 2987 L 5857.878 3071.087 C 5855.552 3117.502 5855.552 3165.936 5857.296 3179.389 C 5859.622 3194.189 5858.459 3205.624 5854.389 3208.315 C 5850.901 3211.006 5847.994 3225.805 5847.994 3241.277 C 5847.412 3270.875 5835.784 3329.399 5828.807 3337.471 C 5826.482 3340.162 5824.737 3355.634 5824.737 3371.778 C 5824.737 3403.395 5820.086 3406.086 5798.574 3389.941 C 5787.527 3381.869 5784.039 3373.124 5784.039 3356.307 C 5784.039 3334.781 5782.876 3333.435 5763.108 3333.435 L 5741.596 3333.435 L 5744.503 3363.706 C 5747.41 3391.959 5746.247 3395.322 5727.642 3414.158 C 5717.176 3425.593 5706.129 3434.338 5703.804 3434.338 C 5695.083 3434.338 5673.57 3379.851 5673.57 3357.652 C 5673.57 3338.144 5671.245 3333.435 5662.524 3333.435 C 5650.314 3333.435 5647.988 3326.708 5641.011 3279.62 L 5636.942 3249.349 L 5614.848 3303.164 C 5593.336 3354.961 5585.196 3407.431 5597.987 3407.431 C 5601.476 3407.431 5603.801 3410.794 5603.801 3414.158 C 5603.801 3418.194 5598.568 3420.885 5592.173 3420.885 C 5584.615 3420.885 5580.545 3425.593 5580.545 3434.338 C 5580.545 3443.083 5584.615 3447.792 5592.173 3447.792 C 5598.568 3447.792 5603.801 3451.156 5603.801 3454.519 C 5603.801 3458.555 5598.568 3461.246 5592.173 3461.246 C 5585.777 3461.246 5580.545 3465.955 5580.545 3471.336 C 5580.545 3478.063 5586.359 3481.427 5597.987 3481.427 C 5607.871 3481.427 5615.429 3484.79 5615.429 3488.154 C 5615.429 3492.19 5607.871 3494.88 5597.987 3494.88 C 5586.359 3494.88 5580.545 3498.244 5580.545 3504.971 C 5580.545 3512.37 5586.94 3515.061 5603.801 3515.061 C 5616.592 3515.061 5627.058 3518.425 5627.058 3521.788 C 5627.058 3525.824 5616.592 3528.515 5603.801 3528.515 C 5584.615 3528.515 5580.545 3530.533 5580.545 3541.969 C 5580.545 3552.059 5584.615 3555.422 5595.08 3555.422 C 5603.22 3555.422 5609.615 3558.786 5609.615 3562.149 C 5609.615 3566.185 5603.22 3568.876 5595.08 3568.876 C 5584.615 3568.876 5580.545 3572.24 5580.545 3582.33 C 5580.545 3593.093 5584.615 3595.784 5597.987 3595.784 C 5607.871 3595.784 5615.429 3599.147 5615.429 3602.511 C 5615.429 3609.91 5578.8 3611.928 5572.986 3604.529 Z M 5673.57 3272.893 C 5673.57 3243.295 5671.245 3232.532 5666.012 3232.532 C 5659.617 3232.532 5659.035 3239.931 5662.524 3264.821 C 5664.849 3282.311 5667.175 3300.473 5667.175 3305.182 C 5667.756 3309.218 5668.919 3313.254 5670.663 3313.254 C 5672.408 3313.254 5673.57 3295.092 5673.57 3272.893 Z M 5669.501 3214.369 C 5665.431 3213.024 5658.454 3213.024 5654.965 3214.369 C 5650.895 3216.387 5653.803 3217.733 5661.942 3217.733 C 5670.082 3217.733 5672.989 3216.387 5669.501 3214.369 Z M 521.688 2550.625 C 517.618 2541.207 511.223 2537.171 504.246 2539.189 C 496.687 2541.88 493.199 2539.189 493.199 2531.789 C 493.199 2525.062 498.432 2521.026 507.153 2521.026 C 519.362 2521.026 521.107 2517.663 523.432 2482.683 C 525.177 2461.83 529.246 2442.994 532.735 2441.649 C 537.386 2440.304 539.712 2413.396 539.712 2358.908 L 539.712 2278.858 L 462.966 2279.531 C 420.523 2280.204 371.103 2282.222 353.079 2284.913 L 320.52 2288.949 L 422.848 2509.591 L 525.177 2730.233 L 526.921 2647.492 C 528.084 2595.022 526.339 2559.37 521.688 2550.625 Z M 632.738 2558.024 C 665.297 2473.265 696.693 2392.543 702.507 2379.762 C 717.042 2345.455 722.856 2323.256 714.717 2328.637 C 711.228 2331.328 708.321 2339.4 708.321 2346.8 C 708.321 2353.527 705.995 2359.581 702.507 2359.581 C 699.6 2359.581 696.693 2347.473 696.693 2332.674 C 696.693 2308.457 698.437 2305.766 711.228 2305.766 C 722.856 2305.766 725.763 2302.403 725.763 2288.949 L 725.763 2272.132 L 662.39 2272.132 C 627.505 2272.132 590.876 2274.15 580.992 2276.168 L 562.968 2280.876 L 562.968 2502.864 C 562.968 2630.675 565.294 2722.833 568.201 2719.47 C 571.108 2715.433 600.179 2643.456 632.738 2558.024 Z M 471.105 2637.401 C 459.477 2611.839 418.197 2523.717 379.824 2440.304 L 310.055 2288.949 L 261.797 2286.931 C 229.82 2285.585 213.54 2287.603 215.285 2292.312 C 217.61 2300.384 487.385 2682.472 490.873 2682.472 C 492.036 2682.472 483.315 2662.291 471.105 2637.401 Z M 651.924 2560.042 C 672.855 2514.299 700.181 2454.43 712.972 2426.85 C 733.322 2383.798 735.647 2374.38 729.252 2364.963 C 722.856 2354.872 717.042 2365.635 686.809 2445.685 C 667.041 2496.137 642.04 2561.388 630.412 2590.313 C 619.365 2618.566 610.644 2642.11 611.807 2642.11 C 613.551 2642.11 630.993 2605.112 651.924 2560.042 Z M 778.09 2285.585 C 778.09 2276.84 774.02 2272.132 766.462 2272.132 C 760.648 2272.132 752.508 2278.186 749.02 2285.585 C 743.206 2297.694 744.368 2299.039 760.648 2299.039 C 774.02 2299.039 778.09 2296.348 778.09 2285.585 Z" style="opacity: 0.3;" transform="matrix(0.1, 0, 0, -0.11065, 0, 652.42511)"/>
</svg>